<?xml version="1.0" encoding="utf-8"?>
<!-- Generator: Adobe Illustrator 20.1.0, SVG Export Plug-In . SVG Version: 6.00 Build 0)  -->
<svg version="1.1" id="Capa_1" xmlns="http://www.w3.org/2000/svg" xmlns:xlink="http://www.w3.org/1999/xlink" x="0px" y="0px"
	 viewBox="0 0 256 222.3" style="enable-background:new 0 0 256 222.3;" xml:space="preserve">
<style type="text/css">
	.st0{fill:#E7474A;}
	.st1{fill:#EBC829;}
</style>
<g>
	<g>
		<g>
			<g>
				<g>
					<polygon class="st0" points="140.7,87.8 142.3,90.9 136.1,96.7 134.4,98.4 136.2,99.6 149.6,108.9 142,116.9 151.2,109.4 
						151.9,108.8 151.2,108.2 140.2,98.3 146.9,93.4 148.3,92.4 147.7,90.4 146,85.6 					"/>
					<g>
						<path class="st0" d="M173.2,92.3v73.4c0,4.5-3.6,8.2-8.2,8.2v8.2c0,4.5-3.6,8.2-8.2,8.2h-8.2c-4.5,0-8.2-3.7-8.2-8.2V174
							h-32.6v8.2c0,4.5-3.7,8.2-8.2,8.2h-8.2c-4.5,0-8.2-3.7-8.2-8.2V174c-4.5,0-8.2-3.7-8.2-8.2V92.3c0-13.5,11-24.5,24.5-24.5h49
							C162.2,67.9,173.2,78.8,173.2,92.3z M107.9,84.2h32.6V76h-32.6V84.2z M99.7,157.6c0-4.5-3.7-8.2-8.2-8.2
							c-4.5,0-8.2,3.6-8.2,8.2c0,4.5,3.7,8.2,8.2,8.2C96.1,165.8,99.7,162.1,99.7,157.6z M165,157.6c0-4.5-3.6-8.2-8.2-8.2
							s-8.2,3.6-8.2,8.2c0,4.5,3.7,8.2,8.2,8.2C161.4,165.8,165,162.1,165,157.6z M165,92.3H83.4v49H165V92.3L165,92.3z"/>
					</g>
					<polyline class="st0" points="150.3,109.2 159.3,115.5 150.4,107.5 149.8,107 149.3,107.7 					"/>
				</g>
			</g>
		</g>
		<g>
			<path class="st1" d="M201.2,193.8l-23.3-37.5c-0.3-0.4-0.7-0.7-1.3-0.7c-0.5,0-1,0.3-1.3,0.7l-23.3,37.6c-0.3,0.5-0.3,1,0,1.5
				c0.3,0.5,0.8,0.8,1.3,0.8H200h0c0.8,0,1.5-0.7,1.5-1.5C201.5,194.3,201.4,194,201.2,193.8z"/>
			<path d="M175,180.6l-0.5-7.2c-0.1-1.4-0.1-2.4-0.1-3c0-0.8,0.2-1.5,0.7-2c0.4-0.5,1-0.7,1.7-0.7c0.9,0,1.4,0.3,1.7,0.9
				c0.3,0.6,0.4,1.5,0.4,2.6c0,0.7,0,1.3-0.1,2l-0.6,7.4c-0.1,0.9-0.2,1.6-0.5,2c-0.2,0.5-0.6,0.7-1.1,0.7c-0.5,0-0.9-0.2-1.1-0.7
				C175.2,182.3,175.1,181.6,175,180.6z M176.6,190.5c-0.6,0-1.1-0.2-1.6-0.6c-0.5-0.4-0.7-1-0.7-1.7c0-0.6,0.2-1.2,0.7-1.6
				c0.4-0.4,1-0.7,1.6-0.7c0.6,0,1.2,0.2,1.6,0.7c0.4,0.4,0.7,1,0.7,1.6c0,0.7-0.2,1.3-0.7,1.7C177.8,190.3,177.2,190.5,176.6,190.5
				z"/>
		</g>
	</g>
</g>
</svg>
